<svg id="visual" viewBox="0 0 900 450" width="900" height="450" xmlns="http://www.w3.org/2000/svg" xmlns:xlink="http://www.w3.org/1999/xlink" version="1.1"><rect x="0" y="0" width="900" height="450" fill="#012436"></rect><path d="M0 344L21.5 350.5C43 357 86 370 128.8 366.8C171.7 363.7 214.3 344.3 257.2 343.5C300 342.7 343 360.3 385.8 369.5C428.7 378.7 471.3 379.3 514.2 372.2C557 365 600 350 642.8 344.7C685.7 339.3 728.3 343.7 771.2 337.8C814 332 857 316 878.5 308L900 300L900 451L878.5 451C857 451 814 451 771.2 451C728.3 451 685.7 451 642.8 451C600 451 557 451 514.2 451C471.3 451 428.7 451 385.8 451C343 451 300 451 257.2 451C214.3 451 171.7 451 128.8 451C86 451 43 451 21.5 451L0 451Z" fill="#0066FF" stroke-linecap="round" stroke-linejoin="miter"></path></svg>