<svg id="visual" viewBox="0 0 1077.6 322" width="1077.6" height="322" xmlns="http://www.w3.org/2000/svg" xmlns:xlink="http://www.w3.org/1999/xlink" version="1.1"><path d="M0 200L25.7 198C51.3 196 102.7 192 154 191C205.3 190 256.7 192 308 198.2C359.3 204.3 410.7 214.7 462 216.5C513.3 218.3 564.7 211.7 616 205.7C667.3 199.7 718.7 194.3 770 196.5C821.3 198.7 872.7 208.3 924 212C975.3 215.7 1026.7 213.3 1052.3 212.2L1078 211L1078 323L1052.3 323C1026.7 323 975.3 323 924 323C872.7 323 821.3 323 770 323C718.7 323 667.3 323 616 323C564.7 323 513.3 323 462 323C410.7 323 359.3 323 308 323C256.7 323 205.3 323 154 323C102.7 323 51.3 323 25.7 323L0 323Z" fill="#5928ae"></path><path d="M0 238L25.7 234.7C51.3 231.3 102.7 224.7 154 227C205.3 229.3 256.7 240.7 308 243.2C359.3 245.7 410.7 239.3 462 237.8C513.3 236.3 564.7 239.7 616 237C667.3 234.3 718.7 225.7 770 223.8C821.3 222 872.7 227 924 227.5C975.3 228 1026.7 224 1052.3 222L1078 220L1078 323L1052.3 323C1026.7 323 975.3 323 924 323C872.7 323 821.3 323 770 323C718.7 323 667.3 323 616 323C564.7 323 513.3 323 462 323C410.7 323 359.3 323 308 323C256.7 323 205.3 323 154 323C102.7 323 51.3 323 25.7 323L0 323Z" fill="#c7008c"></path><path d="M0 270L25.7 269.8C51.3 269.7 102.7 269.3 154 264.2C205.3 259 256.7 249 308 244.3C359.3 239.7 410.7 240.3 462 242.8C513.3 245.3 564.7 249.7 616 252.5C667.3 255.3 718.7 256.7 770 253.8C821.3 251 872.7 244 924 242.8C975.3 241.7 1026.7 246.3 1052.3 248.7L1078 251L1078 323L1052.3 323C1026.7 323 975.3 323 924 323C872.7 323 821.3 323 770 323C718.7 323 667.3 323 616 323C564.7 323 513.3 323 462 323C410.7 323 359.3 323 308 323C256.7 323 205.3 323 154 323C102.7 323 51.3 323 25.7 323L0 323Z" fill="#f84361"></path><path d="M0 269L25.7 268.7C51.3 268.3 102.7 267.7 154 270.5C205.3 273.3 256.7 279.7 308 283C359.3 286.3 410.7 286.7 462 287.3C513.3 288 564.7 289 616 289.5C667.3 290 718.7 290 770 284.8C821.3 279.7 872.7 269.3 924 267.2C975.3 265 1026.7 271 1052.3 274L1078 277L1078 323L1052.3 323C1026.7 323 975.3 323 924 323C872.7 323 821.3 323 770 323C718.7 323 667.3 323 616 323C564.7 323 513.3 323 462 323C410.7 323 359.3 323 308 323C256.7 323 205.3 323 154 323C102.7 323 51.3 323 25.7 323L0 323Z" fill="#ff8b41"></path><path d="M0 295L25.7 296.7C51.3 298.3 102.7 301.7 154 300.3C205.3 299 256.7 293 308 289.3C359.3 285.7 410.7 284.3 462 287.3C513.3 290.3 564.7 297.7 616 300.2C667.3 302.7 718.7 300.3 770 298.5C821.3 296.7 872.7 295.3 924 292.7C975.3 290 1026.7 286 1052.3 284L1078 282L1078 323L1052.3 323C1026.7 323 975.3 323 924 323C872.7 323 821.3 323 770 323C718.7 323 667.3 323 616 323C564.7 323 513.3 323 462 323C410.7 323 359.3 323 308 323C256.7 323 205.3 323 154 323C102.7 323 51.3 323 25.7 323L0 323Z" fill="#f0cb4a"></path></svg>